<mxfile host="app.diagrams.net" agent="Mozilla/5.0 (Windows NT 10.0; Win64; x64) AppleWebKit/537.36 (KHTML, like Gecko) Chrome/138.0.0.0 Safari/537.36" version="28.1.0">
  <diagram name="第 1 页" id="3FStohC9OPghIc_65cWx">
    <mxGraphModel dx="1426" dy="743" grid="1" gridSize="10" guides="1" tooltips="1" connect="1" arrows="1" fold="1" page="1" pageScale="1" pageWidth="827" pageHeight="1169" math="0" shadow="0">
      <root>
        <mxCell id="0" />
        <mxCell id="1" parent="0" />
        <mxCell id="cmYx8P6SDvhnQ8QoC2EQ-1" value="0" style="pointerEvents=1;verticalLabelPosition=bottom;shadow=0;dashed=0;align=center;html=1;verticalAlign=top;shape=mxgraph.electrical.waveforms.square_wave;labelBackgroundColor=default;strokeColor=#000000;strokeWidth=2;fontSize=16;fontColor=#000000;" vertex="1" parent="1">
          <mxGeometry x="161" y="120" width="50" height="80" as="geometry" />
        </mxCell>
        <mxCell id="cmYx8P6SDvhnQ8QoC2EQ-2" value="0" style="pointerEvents=1;verticalLabelPosition=bottom;shadow=0;dashed=0;align=center;html=1;verticalAlign=top;shape=mxgraph.electrical.waveforms.square_wave;labelBackgroundColor=default;strokeColor=#000000;strokeWidth=2;fontSize=16;fontColor=#000000;" vertex="1" parent="1">
          <mxGeometry x="161" y="240" width="60" height="80" as="geometry" />
        </mxCell>
        <mxCell id="cmYx8P6SDvhnQ8QoC2EQ-3" value="1" style="pointerEvents=1;verticalLabelPosition=bottom;shadow=0;dashed=0;align=center;html=1;verticalAlign=top;shape=mxgraph.electrical.waveforms.square_wave;labelBackgroundColor=default;strokeColor=#000000;strokeWidth=2;fontSize=16;fontColor=#000000;" vertex="1" parent="1">
          <mxGeometry x="221" y="240" width="60" height="80" as="geometry" />
        </mxCell>
        <mxCell id="cmYx8P6SDvhnQ8QoC2EQ-4" value="2" style="pointerEvents=1;verticalLabelPosition=bottom;shadow=0;dashed=0;align=center;html=1;verticalAlign=top;shape=mxgraph.electrical.waveforms.square_wave;labelBackgroundColor=default;strokeColor=#000000;strokeWidth=2;fontSize=16;fontColor=#000000;" vertex="1" parent="1">
          <mxGeometry x="281" y="240" width="60" height="80" as="geometry" />
        </mxCell>
        <mxCell id="cmYx8P6SDvhnQ8QoC2EQ-5" value="1" style="pointerEvents=1;verticalLabelPosition=bottom;shadow=0;dashed=0;align=center;html=1;verticalAlign=top;shape=mxgraph.electrical.waveforms.square_wave;labelBackgroundColor=default;strokeColor=#000000;strokeWidth=2;fontSize=16;fontColor=#000000;" vertex="1" parent="1">
          <mxGeometry x="211" y="120" width="50" height="80" as="geometry" />
        </mxCell>
        <mxCell id="cmYx8P6SDvhnQ8QoC2EQ-6" value="2" style="pointerEvents=1;verticalLabelPosition=bottom;shadow=0;dashed=0;align=center;html=1;verticalAlign=top;shape=mxgraph.electrical.waveforms.square_wave;labelBackgroundColor=default;strokeColor=#000000;strokeWidth=2;fontSize=16;fontColor=#000000;" vertex="1" parent="1">
          <mxGeometry x="261" y="120" width="50" height="80" as="geometry" />
        </mxCell>
        <mxCell id="cmYx8P6SDvhnQ8QoC2EQ-7" value="3" style="pointerEvents=1;verticalLabelPosition=bottom;shadow=0;dashed=0;align=center;html=1;verticalAlign=top;shape=mxgraph.electrical.waveforms.square_wave;labelBackgroundColor=default;strokeColor=#000000;strokeWidth=2;fontSize=16;fontColor=#000000;" vertex="1" parent="1">
          <mxGeometry x="311" y="120" width="50" height="80" as="geometry" />
        </mxCell>
        <mxCell id="cmYx8P6SDvhnQ8QoC2EQ-8" value="3" style="pointerEvents=1;verticalLabelPosition=bottom;shadow=0;dashed=0;align=center;html=1;verticalAlign=top;shape=mxgraph.electrical.waveforms.square_wave;labelBackgroundColor=default;strokeColor=#000000;strokeWidth=2;fontSize=16;fontColor=#000000;" vertex="1" parent="1">
          <mxGeometry x="341" y="240" width="60" height="80" as="geometry" />
        </mxCell>
        <mxCell id="cmYx8P6SDvhnQ8QoC2EQ-9" value="4" style="pointerEvents=1;verticalLabelPosition=bottom;shadow=0;dashed=0;align=center;html=1;verticalAlign=top;shape=mxgraph.electrical.waveforms.square_wave;labelBackgroundColor=default;strokeColor=#000000;strokeWidth=2;fontSize=16;fontColor=#000000;" vertex="1" parent="1">
          <mxGeometry x="401" y="240" width="60" height="80" as="geometry" />
        </mxCell>
        <mxCell id="cmYx8P6SDvhnQ8QoC2EQ-10" value="5" style="pointerEvents=1;verticalLabelPosition=bottom;shadow=0;dashed=0;align=center;html=1;verticalAlign=top;shape=mxgraph.electrical.waveforms.square_wave;labelBackgroundColor=default;strokeColor=#000000;strokeWidth=2;fontSize=16;fontColor=#000000;" vertex="1" parent="1">
          <mxGeometry x="461" y="240" width="60" height="80" as="geometry" />
        </mxCell>
        <mxCell id="cmYx8P6SDvhnQ8QoC2EQ-11" value="4" style="pointerEvents=1;verticalLabelPosition=bottom;shadow=0;dashed=0;align=center;html=1;verticalAlign=top;shape=mxgraph.electrical.waveforms.square_wave;labelBackgroundColor=default;strokeColor=#000000;strokeWidth=2;fontSize=16;fontColor=#000000;" vertex="1" parent="1">
          <mxGeometry x="361" y="120" width="50" height="80" as="geometry" />
        </mxCell>
        <mxCell id="cmYx8P6SDvhnQ8QoC2EQ-12" value="5" style="pointerEvents=1;verticalLabelPosition=bottom;shadow=0;dashed=0;align=center;html=1;verticalAlign=top;shape=mxgraph.electrical.waveforms.square_wave;labelBackgroundColor=default;strokeColor=#000000;strokeWidth=2;fontSize=16;fontColor=#000000;" vertex="1" parent="1">
          <mxGeometry x="411" y="120" width="50" height="80" as="geometry" />
        </mxCell>
        <mxCell id="cmYx8P6SDvhnQ8QoC2EQ-13" value="6" style="pointerEvents=1;verticalLabelPosition=bottom;shadow=0;dashed=0;align=center;html=1;verticalAlign=top;shape=mxgraph.electrical.waveforms.square_wave;labelBackgroundColor=default;strokeColor=#000000;strokeWidth=2;fontSize=16;fontColor=#000000;" vertex="1" parent="1">
          <mxGeometry x="461" y="120" width="50" height="80" as="geometry" />
        </mxCell>
        <mxCell id="cmYx8P6SDvhnQ8QoC2EQ-14" value="7" style="pointerEvents=1;verticalLabelPosition=bottom;shadow=0;dashed=0;align=center;html=1;verticalAlign=top;shape=mxgraph.electrical.waveforms.square_wave;labelBackgroundColor=default;strokeColor=#000000;strokeWidth=2;fontSize=16;fontColor=#000000;" vertex="1" parent="1">
          <mxGeometry x="511" y="120" width="50" height="80" as="geometry" />
        </mxCell>
        <mxCell id="cmYx8P6SDvhnQ8QoC2EQ-15" value="" style="endArrow=none;html=1;rounded=0;labelBackgroundColor=none;strokeColor=#00CC00;strokeWidth=1;fontSize=16;fontColor=#000000;curved=1;dashed=1;dashPattern=1 1;" edge="1" parent="1">
          <mxGeometry width="50" height="50" relative="1" as="geometry">
            <mxPoint x="160" y="840" as="sourcePoint" />
            <mxPoint x="160" y="80" as="targetPoint" />
          </mxGeometry>
        </mxCell>
        <mxCell id="cmYx8P6SDvhnQ8QoC2EQ-16" value="" style="endArrow=none;html=1;rounded=0;labelBackgroundColor=none;strokeColor=#00CC00;strokeWidth=1;fontSize=16;fontColor=#000000;curved=1;dashed=1;dashPattern=1 1;" edge="1" parent="1">
          <mxGeometry width="50" height="50" relative="1" as="geometry">
            <mxPoint x="210" y="840" as="sourcePoint" />
            <mxPoint x="210" y="80" as="targetPoint" />
          </mxGeometry>
        </mxCell>
        <mxCell id="cmYx8P6SDvhnQ8QoC2EQ-17" value="" style="endArrow=none;html=1;rounded=0;labelBackgroundColor=none;strokeColor=#00CC00;strokeWidth=1;fontSize=16;fontColor=#000000;curved=1;dashed=1;dashPattern=1 1;" edge="1" parent="1">
          <mxGeometry width="50" height="50" relative="1" as="geometry">
            <mxPoint x="260" y="840" as="sourcePoint" />
            <mxPoint x="260" y="80" as="targetPoint" />
          </mxGeometry>
        </mxCell>
        <mxCell id="cmYx8P6SDvhnQ8QoC2EQ-18" value="" style="endArrow=none;html=1;rounded=0;labelBackgroundColor=none;strokeColor=#00CC00;strokeWidth=1;fontSize=16;fontColor=#000000;curved=1;dashed=1;dashPattern=1 1;" edge="1" parent="1">
          <mxGeometry width="50" height="50" relative="1" as="geometry">
            <mxPoint x="310" y="840" as="sourcePoint" />
            <mxPoint x="310" y="80" as="targetPoint" />
          </mxGeometry>
        </mxCell>
        <mxCell id="cmYx8P6SDvhnQ8QoC2EQ-19" value="" style="endArrow=none;html=1;rounded=0;labelBackgroundColor=none;strokeColor=#00CC00;strokeWidth=1;fontSize=16;fontColor=#000000;curved=1;dashed=1;dashPattern=1 1;" edge="1" parent="1">
          <mxGeometry width="50" height="50" relative="1" as="geometry">
            <mxPoint x="360" y="840" as="sourcePoint" />
            <mxPoint x="360" y="80" as="targetPoint" />
          </mxGeometry>
        </mxCell>
        <mxCell id="cmYx8P6SDvhnQ8QoC2EQ-20" value="" style="endArrow=none;html=1;rounded=0;labelBackgroundColor=none;strokeColor=#00CC00;strokeWidth=1;fontSize=16;fontColor=#000000;curved=1;dashed=1;dashPattern=1 1;" edge="1" parent="1">
          <mxGeometry width="50" height="50" relative="1" as="geometry">
            <mxPoint x="410" y="840" as="sourcePoint" />
            <mxPoint x="410" y="80" as="targetPoint" />
          </mxGeometry>
        </mxCell>
        <mxCell id="cmYx8P6SDvhnQ8QoC2EQ-21" value="" style="endArrow=none;html=1;rounded=0;labelBackgroundColor=none;strokeColor=#00CC00;strokeWidth=1;fontSize=16;fontColor=#000000;curved=1;dashed=1;dashPattern=1 1;" edge="1" parent="1">
          <mxGeometry width="50" height="50" relative="1" as="geometry">
            <mxPoint x="510" y="840" as="sourcePoint" />
            <mxPoint x="510" y="80" as="targetPoint" />
          </mxGeometry>
        </mxCell>
        <mxCell id="cmYx8P6SDvhnQ8QoC2EQ-22" value="" style="endArrow=none;html=1;rounded=0;labelBackgroundColor=none;strokeColor=#0000FF;strokeWidth=1;fontSize=16;fontColor=#000000;curved=1;dashed=1;dashPattern=1 1;" edge="1" parent="1">
          <mxGeometry width="50" height="50" relative="1" as="geometry">
            <mxPoint x="185" y="840" as="sourcePoint" />
            <mxPoint x="185" y="80" as="targetPoint" />
          </mxGeometry>
        </mxCell>
        <mxCell id="cmYx8P6SDvhnQ8QoC2EQ-23" value="" style="endArrow=none;html=1;rounded=0;labelBackgroundColor=none;strokeColor=#0000FF;strokeWidth=1;fontSize=16;fontColor=#000000;curved=1;dashed=1;dashPattern=1 1;" edge="1" parent="1">
          <mxGeometry width="50" height="50" relative="1" as="geometry">
            <mxPoint x="235" y="840" as="sourcePoint" />
            <mxPoint x="235" y="80" as="targetPoint" />
          </mxGeometry>
        </mxCell>
        <mxCell id="cmYx8P6SDvhnQ8QoC2EQ-24" value="" style="endArrow=none;html=1;rounded=0;labelBackgroundColor=none;strokeColor=#0000FF;strokeWidth=1;fontSize=16;fontColor=#000000;curved=1;dashed=1;dashPattern=1 1;" edge="1" parent="1">
          <mxGeometry width="50" height="50" relative="1" as="geometry">
            <mxPoint x="285" y="840" as="sourcePoint" />
            <mxPoint x="285" y="80" as="targetPoint" />
          </mxGeometry>
        </mxCell>
        <mxCell id="cmYx8P6SDvhnQ8QoC2EQ-25" value="" style="endArrow=none;html=1;rounded=0;labelBackgroundColor=none;strokeColor=#0000FF;strokeWidth=1;fontSize=16;fontColor=#000000;curved=1;dashed=1;dashPattern=1 1;" edge="1" parent="1">
          <mxGeometry width="50" height="50" relative="1" as="geometry">
            <mxPoint x="385" y="840" as="sourcePoint" />
            <mxPoint x="385" y="80" as="targetPoint" />
          </mxGeometry>
        </mxCell>
        <mxCell id="cmYx8P6SDvhnQ8QoC2EQ-26" value="" style="endArrow=none;html=1;rounded=0;labelBackgroundColor=none;strokeColor=#0000FF;strokeWidth=1;fontSize=16;fontColor=#000000;curved=1;dashed=1;dashPattern=1 1;" edge="1" parent="1">
          <mxGeometry width="50" height="50" relative="1" as="geometry">
            <mxPoint x="435" y="840" as="sourcePoint" />
            <mxPoint x="435" y="80" as="targetPoint" />
          </mxGeometry>
        </mxCell>
        <mxCell id="cmYx8P6SDvhnQ8QoC2EQ-27" value="" style="endArrow=none;html=1;rounded=0;labelBackgroundColor=none;strokeColor=#0000FF;strokeWidth=1;fontSize=16;fontColor=#000000;curved=1;dashed=1;dashPattern=1 1;" edge="1" parent="1">
          <mxGeometry width="50" height="50" relative="1" as="geometry">
            <mxPoint x="485" y="840" as="sourcePoint" />
            <mxPoint x="485" y="80" as="targetPoint" />
          </mxGeometry>
        </mxCell>
        <mxCell id="cmYx8P6SDvhnQ8QoC2EQ-28" value="8" style="pointerEvents=1;verticalLabelPosition=bottom;shadow=0;dashed=0;align=center;html=1;verticalAlign=top;shape=mxgraph.electrical.waveforms.square_wave;labelBackgroundColor=default;strokeColor=#000000;strokeWidth=2;fontSize=16;fontColor=#000000;" vertex="1" parent="1">
          <mxGeometry x="561" y="120" width="50" height="80" as="geometry" />
        </mxCell>
        <mxCell id="cmYx8P6SDvhnQ8QoC2EQ-29" value="9" style="pointerEvents=1;verticalLabelPosition=bottom;shadow=0;dashed=0;align=center;html=1;verticalAlign=top;shape=mxgraph.electrical.waveforms.square_wave;labelBackgroundColor=default;strokeColor=#000000;strokeWidth=2;fontSize=16;fontColor=#000000;" vertex="1" parent="1">
          <mxGeometry x="611" y="120" width="50" height="80" as="geometry" />
        </mxCell>
        <mxCell id="cmYx8P6SDvhnQ8QoC2EQ-30" value="6" style="pointerEvents=1;verticalLabelPosition=bottom;shadow=0;dashed=0;align=center;html=1;verticalAlign=top;shape=mxgraph.electrical.waveforms.square_wave;labelBackgroundColor=default;strokeColor=#000000;strokeWidth=2;fontSize=16;fontColor=#000000;" vertex="1" parent="1">
          <mxGeometry x="521" y="240" width="60" height="80" as="geometry" />
        </mxCell>
        <mxCell id="cmYx8P6SDvhnQ8QoC2EQ-31" value="7" style="pointerEvents=1;verticalLabelPosition=bottom;shadow=0;dashed=0;align=center;html=1;verticalAlign=top;shape=mxgraph.electrical.waveforms.square_wave;labelBackgroundColor=default;strokeColor=#000000;strokeWidth=2;fontSize=16;fontColor=#000000;" vertex="1" parent="1">
          <mxGeometry x="581" y="240" width="60" height="80" as="geometry" />
        </mxCell>
        <mxCell id="cmYx8P6SDvhnQ8QoC2EQ-32" value="8" style="pointerEvents=1;verticalLabelPosition=bottom;shadow=0;dashed=0;align=center;html=1;verticalAlign=top;shape=mxgraph.electrical.waveforms.square_wave;labelBackgroundColor=default;strokeColor=#000000;strokeWidth=2;fontSize=16;fontColor=#000000;" vertex="1" parent="1">
          <mxGeometry x="641" y="240" width="60" height="80" as="geometry" />
        </mxCell>
        <mxCell id="cmYx8P6SDvhnQ8QoC2EQ-33" value="" style="endArrow=none;html=1;rounded=0;labelBackgroundColor=none;strokeColor=#0000FF;strokeWidth=1;fontSize=16;fontColor=#000000;curved=1;dashed=1;dashPattern=1 1;" edge="1" parent="1">
          <mxGeometry width="50" height="50" relative="1" as="geometry">
            <mxPoint x="335" y="840" as="sourcePoint" />
            <mxPoint x="335" y="80" as="targetPoint" />
          </mxGeometry>
        </mxCell>
        <mxCell id="cmYx8P6SDvhnQ8QoC2EQ-34" value="" style="endArrow=none;html=1;rounded=0;labelBackgroundColor=none;strokeColor=#00CC00;strokeWidth=1;fontSize=16;fontColor=#000000;curved=1;dashed=1;dashPattern=1 1;" edge="1" parent="1">
          <mxGeometry width="50" height="50" relative="1" as="geometry">
            <mxPoint x="460" y="840" as="sourcePoint" />
            <mxPoint x="460" y="200" as="targetPoint" />
          </mxGeometry>
        </mxCell>
        <mxCell id="cmYx8P6SDvhnQ8QoC2EQ-35" value="" style="endArrow=none;html=1;rounded=0;labelBackgroundColor=none;strokeColor=#00CC00;strokeWidth=1;fontSize=16;fontColor=#000000;curved=1;dashed=1;dashPattern=1 1;" edge="1" parent="1">
          <mxGeometry width="50" height="50" relative="1" as="geometry">
            <mxPoint x="560" y="840" as="sourcePoint" />
            <mxPoint x="560" y="80" as="targetPoint" />
          </mxGeometry>
        </mxCell>
        <mxCell id="cmYx8P6SDvhnQ8QoC2EQ-36" value="" style="endArrow=none;html=1;rounded=0;labelBackgroundColor=none;strokeColor=#00CC00;strokeWidth=1;fontSize=16;fontColor=#000000;curved=1;dashed=1;dashPattern=1 1;" edge="1" parent="1">
          <mxGeometry width="50" height="50" relative="1" as="geometry">
            <mxPoint x="610" y="840" as="sourcePoint" />
            <mxPoint x="610" y="80" as="targetPoint" />
          </mxGeometry>
        </mxCell>
        <mxCell id="cmYx8P6SDvhnQ8QoC2EQ-37" value="" style="endArrow=none;html=1;rounded=0;labelBackgroundColor=none;strokeColor=#00CC00;strokeWidth=1;fontSize=16;fontColor=#000000;curved=1;dashed=1;dashPattern=1 1;" edge="1" parent="1">
          <mxGeometry width="50" height="50" relative="1" as="geometry">
            <mxPoint x="660" y="840" as="sourcePoint" />
            <mxPoint x="660" y="80" as="targetPoint" />
          </mxGeometry>
        </mxCell>
        <mxCell id="cmYx8P6SDvhnQ8QoC2EQ-38" value="" style="endArrow=none;html=1;rounded=0;labelBackgroundColor=none;strokeColor=#0000FF;strokeWidth=1;fontSize=16;fontColor=#000000;curved=1;dashed=1;dashPattern=1 1;" edge="1" parent="1">
          <mxGeometry width="50" height="50" relative="1" as="geometry">
            <mxPoint x="535" y="840" as="sourcePoint" />
            <mxPoint x="535" y="80" as="targetPoint" />
          </mxGeometry>
        </mxCell>
        <mxCell id="cmYx8P6SDvhnQ8QoC2EQ-39" value="" style="endArrow=none;html=1;rounded=0;labelBackgroundColor=none;strokeColor=#0000FF;strokeWidth=1;fontSize=16;fontColor=#000000;curved=1;dashed=1;dashPattern=1 1;" edge="1" parent="1">
          <mxGeometry width="50" height="50" relative="1" as="geometry">
            <mxPoint x="585" y="840" as="sourcePoint" />
            <mxPoint x="585" y="80" as="targetPoint" />
          </mxGeometry>
        </mxCell>
        <mxCell id="cmYx8P6SDvhnQ8QoC2EQ-40" value="" style="endArrow=none;html=1;rounded=0;labelBackgroundColor=none;strokeColor=#0000FF;strokeWidth=1;fontSize=16;fontColor=#000000;curved=1;dashed=1;dashPattern=1 1;" edge="1" parent="1">
          <mxGeometry width="50" height="50" relative="1" as="geometry">
            <mxPoint x="635" y="840" as="sourcePoint" />
            <mxPoint x="635" y="80" as="targetPoint" />
          </mxGeometry>
        </mxCell>
        <mxCell id="cmYx8P6SDvhnQ8QoC2EQ-41" value="10" style="pointerEvents=1;verticalLabelPosition=bottom;shadow=0;dashed=0;align=center;html=1;verticalAlign=top;shape=mxgraph.electrical.waveforms.square_wave;labelBackgroundColor=default;strokeColor=#000000;strokeWidth=2;fontSize=16;fontColor=#000000;" vertex="1" parent="1">
          <mxGeometry x="661" y="120" width="50" height="80" as="geometry" />
        </mxCell>
        <mxCell id="cmYx8P6SDvhnQ8QoC2EQ-42" value="" style="endArrow=none;html=1;rounded=0;strokeWidth=2;" edge="1" parent="1">
          <mxGeometry width="50" height="50" relative="1" as="geometry">
            <mxPoint x="160.5300000000002" y="440" as="sourcePoint" />
            <mxPoint x="210" y="360" as="targetPoint" />
            <Array as="points">
              <mxPoint x="160" y="360" />
            </Array>
          </mxGeometry>
        </mxCell>
        <mxCell id="cmYx8P6SDvhnQ8QoC2EQ-43" value="" style="endArrow=none;html=1;rounded=0;strokeWidth=2;" edge="1" parent="1">
          <mxGeometry width="50" height="50" relative="1" as="geometry">
            <mxPoint x="360" y="440" as="sourcePoint" />
            <mxPoint x="211" y="360" as="targetPoint" />
            <Array as="points">
              <mxPoint x="211" y="440" />
            </Array>
          </mxGeometry>
        </mxCell>
        <mxCell id="cmYx8P6SDvhnQ8QoC2EQ-44" value="" style="endArrow=none;html=1;rounded=0;strokeWidth=2;" edge="1" parent="1">
          <mxGeometry width="50" height="50" relative="1" as="geometry">
            <mxPoint x="361.5300000000002" y="440" as="sourcePoint" />
            <mxPoint x="510" y="360" as="targetPoint" />
            <Array as="points">
              <mxPoint x="361" y="360" />
            </Array>
          </mxGeometry>
        </mxCell>
        <mxCell id="cmYx8P6SDvhnQ8QoC2EQ-45" value="" style="endArrow=none;html=1;rounded=0;strokeWidth=2;" edge="1" parent="1">
          <mxGeometry width="50" height="50" relative="1" as="geometry">
            <mxPoint x="660" y="440" as="sourcePoint" />
            <mxPoint x="511" y="360" as="targetPoint" />
            <Array as="points">
              <mxPoint x="511" y="440" />
            </Array>
          </mxGeometry>
        </mxCell>
        <mxCell id="cmYx8P6SDvhnQ8QoC2EQ-46" value="" style="endArrow=none;html=1;rounded=0;strokeWidth=2;" edge="1" parent="1">
          <mxGeometry width="50" height="50" relative="1" as="geometry">
            <mxPoint x="661.5300000000002" y="440" as="sourcePoint" />
            <mxPoint x="681" y="360" as="targetPoint" />
            <Array as="points">
              <mxPoint x="661" y="360" />
            </Array>
          </mxGeometry>
        </mxCell>
        <mxCell id="cmYx8P6SDvhnQ8QoC2EQ-47" value="" style="endArrow=none;html=1;rounded=0;strokeWidth=2;" edge="1" parent="1">
          <mxGeometry width="50" height="50" relative="1" as="geometry">
            <mxPoint x="161.5300000000002" y="560" as="sourcePoint" />
            <mxPoint x="210" y="480" as="targetPoint" />
            <Array as="points">
              <mxPoint x="161" y="480" />
            </Array>
          </mxGeometry>
        </mxCell>
        <mxCell id="cmYx8P6SDvhnQ8QoC2EQ-48" value="" style="endArrow=none;html=1;rounded=0;strokeWidth=2;" edge="1" parent="1">
          <mxGeometry width="50" height="50" relative="1" as="geometry">
            <mxPoint x="235" y="560" as="sourcePoint" />
            <mxPoint x="211" y="480" as="targetPoint" />
            <Array as="points">
              <mxPoint x="211" y="560" />
            </Array>
          </mxGeometry>
        </mxCell>
        <mxCell id="cmYx8P6SDvhnQ8QoC2EQ-49" value="" style="endArrow=none;html=1;rounded=0;strokeWidth=2;" edge="1" parent="1">
          <mxGeometry width="50" height="50" relative="1" as="geometry">
            <mxPoint x="236.5300000000002" y="560" as="sourcePoint" />
            <mxPoint x="260" y="480" as="targetPoint" />
            <Array as="points">
              <mxPoint x="236" y="480" />
            </Array>
          </mxGeometry>
        </mxCell>
        <mxCell id="cmYx8P6SDvhnQ8QoC2EQ-50" value="" style="endArrow=none;html=1;rounded=0;strokeWidth=2;" edge="1" parent="1">
          <mxGeometry width="50" height="50" relative="1" as="geometry">
            <mxPoint x="286" y="560" as="sourcePoint" />
            <mxPoint x="310" y="480" as="targetPoint" />
            <Array as="points">
              <mxPoint x="286" y="480" />
            </Array>
          </mxGeometry>
        </mxCell>
        <mxCell id="cmYx8P6SDvhnQ8QoC2EQ-51" value="" style="endArrow=none;html=1;rounded=0;strokeWidth=2;" edge="1" parent="1">
          <mxGeometry width="50" height="50" relative="1" as="geometry">
            <mxPoint x="285" y="560" as="sourcePoint" />
            <mxPoint x="261" y="480" as="targetPoint" />
            <Array as="points">
              <mxPoint x="261" y="560" />
            </Array>
          </mxGeometry>
        </mxCell>
        <mxCell id="cmYx8P6SDvhnQ8QoC2EQ-52" value="" style="endArrow=none;html=1;rounded=0;strokeWidth=2;" edge="1" parent="1">
          <mxGeometry width="50" height="50" relative="1" as="geometry">
            <mxPoint x="360" y="560" as="sourcePoint" />
            <mxPoint x="311" y="480" as="targetPoint" />
            <Array as="points">
              <mxPoint x="311" y="560" />
            </Array>
          </mxGeometry>
        </mxCell>
        <mxCell id="cmYx8P6SDvhnQ8QoC2EQ-53" value="" style="endArrow=none;html=1;rounded=0;strokeWidth=2;" edge="1" parent="1">
          <mxGeometry width="50" height="50" relative="1" as="geometry">
            <mxPoint x="361" y="560" as="sourcePoint" />
            <mxPoint x="385" y="480" as="targetPoint" />
            <Array as="points">
              <mxPoint x="361" y="480" />
            </Array>
          </mxGeometry>
        </mxCell>
        <mxCell id="cmYx8P6SDvhnQ8QoC2EQ-54" value="" style="endArrow=none;html=1;rounded=0;strokeWidth=2;" edge="1" parent="1">
          <mxGeometry width="50" height="50" relative="1" as="geometry">
            <mxPoint x="410" y="560" as="sourcePoint" />
            <mxPoint x="386" y="480" as="targetPoint" />
            <Array as="points">
              <mxPoint x="386" y="560" />
            </Array>
          </mxGeometry>
        </mxCell>
        <mxCell id="cmYx8P6SDvhnQ8QoC2EQ-55" value="" style="endArrow=none;html=1;rounded=0;strokeWidth=2;" edge="1" parent="1">
          <mxGeometry width="50" height="50" relative="1" as="geometry">
            <mxPoint x="411" y="560" as="sourcePoint" />
            <mxPoint x="435" y="480" as="targetPoint" />
            <Array as="points">
              <mxPoint x="411" y="480" />
            </Array>
          </mxGeometry>
        </mxCell>
        <mxCell id="cmYx8P6SDvhnQ8QoC2EQ-56" value="" style="endArrow=none;html=1;rounded=0;strokeWidth=2;" edge="1" parent="1">
          <mxGeometry width="50" height="50" relative="1" as="geometry">
            <mxPoint x="460" y="560" as="sourcePoint" />
            <mxPoint x="436" y="480" as="targetPoint" />
            <Array as="points">
              <mxPoint x="436" y="560" />
            </Array>
          </mxGeometry>
        </mxCell>
        <mxCell id="cmYx8P6SDvhnQ8QoC2EQ-57" value="" style="endArrow=none;html=1;rounded=0;strokeWidth=2;" edge="1" parent="1">
          <mxGeometry width="50" height="50" relative="1" as="geometry">
            <mxPoint x="461.5300000000002" y="560" as="sourcePoint" />
            <mxPoint x="510" y="480" as="targetPoint" />
            <Array as="points">
              <mxPoint x="461" y="480" />
            </Array>
          </mxGeometry>
        </mxCell>
        <mxCell id="cmYx8P6SDvhnQ8QoC2EQ-58" value="" style="endArrow=none;html=1;rounded=0;strokeWidth=2;" edge="1" parent="1">
          <mxGeometry width="50" height="50" relative="1" as="geometry">
            <mxPoint x="535" y="560" as="sourcePoint" />
            <mxPoint x="511" y="480" as="targetPoint" />
            <Array as="points">
              <mxPoint x="511" y="560" />
            </Array>
          </mxGeometry>
        </mxCell>
        <mxCell id="cmYx8P6SDvhnQ8QoC2EQ-59" value="" style="endArrow=none;html=1;rounded=0;strokeWidth=2;" edge="1" parent="1">
          <mxGeometry width="50" height="50" relative="1" as="geometry">
            <mxPoint x="535.5300000000002" y="560" as="sourcePoint" />
            <mxPoint x="559" y="480" as="targetPoint" />
            <Array as="points">
              <mxPoint x="535" y="480" />
            </Array>
          </mxGeometry>
        </mxCell>
        <mxCell id="cmYx8P6SDvhnQ8QoC2EQ-60" value="" style="endArrow=none;html=1;rounded=0;strokeWidth=2;" edge="1" parent="1">
          <mxGeometry width="50" height="50" relative="1" as="geometry">
            <mxPoint x="585" y="560" as="sourcePoint" />
            <mxPoint x="561" y="480" as="targetPoint" />
            <Array as="points">
              <mxPoint x="561" y="560" />
            </Array>
          </mxGeometry>
        </mxCell>
        <mxCell id="cmYx8P6SDvhnQ8QoC2EQ-61" value="0" style="text;html=1;strokeColor=none;fillColor=none;align=center;verticalAlign=middle;whiteSpace=wrap;rounded=0;fontSize=16;strokeWidth=2;" vertex="1" parent="1">
          <mxGeometry x="186" y="560" width="20" height="30" as="geometry" />
        </mxCell>
        <mxCell id="cmYx8P6SDvhnQ8QoC2EQ-62" value="1" style="text;html=1;strokeColor=none;fillColor=none;align=center;verticalAlign=middle;whiteSpace=wrap;rounded=0;fontSize=16;strokeWidth=2;" vertex="1" parent="1">
          <mxGeometry x="250" y="560" width="20" height="30" as="geometry" />
        </mxCell>
        <mxCell id="cmYx8P6SDvhnQ8QoC2EQ-63" value="2" style="text;html=1;strokeColor=none;fillColor=none;align=center;verticalAlign=middle;whiteSpace=wrap;rounded=0;fontSize=16;strokeWidth=2;" vertex="1" parent="1">
          <mxGeometry x="312" y="560" width="20" height="30" as="geometry" />
        </mxCell>
        <mxCell id="cmYx8P6SDvhnQ8QoC2EQ-64" value="3" style="text;html=1;strokeColor=none;fillColor=none;align=center;verticalAlign=middle;whiteSpace=wrap;rounded=0;fontSize=16;strokeWidth=2;" vertex="1" parent="1">
          <mxGeometry x="376" y="560" width="20" height="30" as="geometry" />
        </mxCell>
        <mxCell id="cmYx8P6SDvhnQ8QoC2EQ-65" value="4" style="text;html=1;strokeColor=none;fillColor=none;align=center;verticalAlign=middle;whiteSpace=wrap;rounded=0;fontSize=16;strokeWidth=2;" vertex="1" parent="1">
          <mxGeometry x="426" y="560" width="20" height="30" as="geometry" />
        </mxCell>
        <mxCell id="cmYx8P6SDvhnQ8QoC2EQ-66" value="5" style="text;html=1;strokeColor=none;fillColor=none;align=center;verticalAlign=middle;whiteSpace=wrap;rounded=0;fontSize=16;strokeWidth=2;" vertex="1" parent="1">
          <mxGeometry x="488" y="560" width="20" height="30" as="geometry" />
        </mxCell>
        <mxCell id="cmYx8P6SDvhnQ8QoC2EQ-67" value="6" style="text;html=1;strokeColor=none;fillColor=none;align=center;verticalAlign=middle;whiteSpace=wrap;rounded=0;fontSize=16;strokeWidth=2;" vertex="1" parent="1">
          <mxGeometry x="550" y="560" width="20" height="30" as="geometry" />
        </mxCell>
        <mxCell id="cmYx8P6SDvhnQ8QoC2EQ-68" value="" style="endArrow=none;html=1;rounded=0;strokeWidth=2;" edge="1" parent="1">
          <mxGeometry width="50" height="50" relative="1" as="geometry">
            <mxPoint x="586" y="560" as="sourcePoint" />
            <mxPoint x="610" y="480" as="targetPoint" />
            <Array as="points">
              <mxPoint x="586" y="480" />
            </Array>
          </mxGeometry>
        </mxCell>
        <mxCell id="cmYx8P6SDvhnQ8QoC2EQ-69" value="" style="endArrow=none;html=1;rounded=0;strokeWidth=2;" edge="1" parent="1">
          <mxGeometry width="50" height="50" relative="1" as="geometry">
            <mxPoint x="660" y="560" as="sourcePoint" />
            <mxPoint x="611" y="480" as="targetPoint" />
            <Array as="points">
              <mxPoint x="611" y="560" />
            </Array>
          </mxGeometry>
        </mxCell>
        <mxCell id="cmYx8P6SDvhnQ8QoC2EQ-70" value="" style="endArrow=none;html=1;rounded=0;strokeWidth=2;" edge="1" parent="1">
          <mxGeometry width="50" height="50" relative="1" as="geometry">
            <mxPoint x="661" y="560" as="sourcePoint" />
            <mxPoint x="685" y="480" as="targetPoint" />
            <Array as="points">
              <mxPoint x="661" y="480" />
            </Array>
          </mxGeometry>
        </mxCell>
        <mxCell id="cmYx8P6SDvhnQ8QoC2EQ-71" value="7" style="text;html=1;strokeColor=none;fillColor=none;align=center;verticalAlign=middle;whiteSpace=wrap;rounded=0;fontSize=16;strokeWidth=2;" vertex="1" parent="1">
          <mxGeometry x="611" y="560" width="20" height="30" as="geometry" />
        </mxCell>
        <mxCell id="cmYx8P6SDvhnQ8QoC2EQ-72" value="8" style="text;html=1;strokeColor=none;fillColor=none;align=center;verticalAlign=middle;whiteSpace=wrap;rounded=0;fontSize=16;strokeWidth=2;" vertex="1" parent="1">
          <mxGeometry x="681" y="560" width="20" height="30" as="geometry" />
        </mxCell>
        <mxCell id="cmYx8P6SDvhnQ8QoC2EQ-73" value="a).主时钟" style="text;html=1;strokeColor=none;fillColor=none;align=center;verticalAlign=middle;whiteSpace=wrap;rounded=0;fontSize=15;" vertex="1" parent="1">
          <mxGeometry x="40" y="145" width="80" height="30" as="geometry" />
        </mxCell>
        <mxCell id="cmYx8P6SDvhnQ8QoC2EQ-74" value="b).频率大于主时钟一半的时钟" style="text;html=1;strokeColor=none;fillColor=none;align=center;verticalAlign=middle;whiteSpace=wrap;rounded=0;fontSize=15;" vertex="1" parent="1">
          <mxGeometry x="40" y="265" width="80" height="30" as="geometry" />
        </mxCell>
        <mxCell id="cmYx8P6SDvhnQ8QoC2EQ-75" value="c).仅在主时钟上升沿采样b" style="text;html=1;strokeColor=none;fillColor=none;align=center;verticalAlign=middle;whiteSpace=wrap;rounded=0;fontSize=15;" vertex="1" parent="1">
          <mxGeometry x="40" y="385" width="80" height="30" as="geometry" />
        </mxCell>
        <mxCell id="cmYx8P6SDvhnQ8QoC2EQ-76" value="d).在主时钟双边沿采样b" style="text;html=1;strokeColor=none;fillColor=none;align=center;verticalAlign=middle;whiteSpace=wrap;rounded=0;fontSize=15;" vertex="1" parent="1">
          <mxGeometry x="40" y="520" width="80" height="30" as="geometry" />
        </mxCell>
        <mxCell id="cmYx8P6SDvhnQ8QoC2EQ-77" value="0" style="text;html=1;strokeColor=none;fillColor=none;align=center;verticalAlign=middle;whiteSpace=wrap;rounded=0;fontSize=16;strokeWidth=2;" vertex="1" parent="1">
          <mxGeometry x="191" y="440" width="20" height="30" as="geometry" />
        </mxCell>
        <mxCell id="cmYx8P6SDvhnQ8QoC2EQ-78" value="3" style="text;html=1;strokeColor=none;fillColor=none;align=center;verticalAlign=middle;whiteSpace=wrap;rounded=0;fontSize=16;strokeWidth=2;" vertex="1" parent="1">
          <mxGeometry x="361" y="439.86" width="20" height="30" as="geometry" />
        </mxCell>
        <mxCell id="cmYx8P6SDvhnQ8QoC2EQ-79" value="8" style="text;html=1;strokeColor=none;fillColor=none;align=center;verticalAlign=middle;whiteSpace=wrap;rounded=0;fontSize=16;strokeWidth=2;" vertex="1" parent="1">
          <mxGeometry x="661" y="439.86" width="20" height="30" as="geometry" />
        </mxCell>
        <mxCell id="cmYx8P6SDvhnQ8QoC2EQ-80" value="0" style="pointerEvents=1;verticalLabelPosition=bottom;shadow=0;dashed=0;align=center;html=1;verticalAlign=top;shape=mxgraph.electrical.waveforms.square_wave;labelBackgroundColor=default;strokeColor=#000000;strokeWidth=2;fontSize=16;fontColor=#000000;" vertex="1" parent="1">
          <mxGeometry x="127" y="599.86" width="79" height="80" as="geometry" />
        </mxCell>
        <mxCell id="cmYx8P6SDvhnQ8QoC2EQ-81" value="e).频率大于主时钟一半、有相位差的时钟" style="text;html=1;strokeColor=none;fillColor=none;align=center;verticalAlign=middle;whiteSpace=wrap;rounded=0;fontSize=15;" vertex="1" parent="1">
          <mxGeometry x="40" y="625" width="80" height="30" as="geometry" />
        </mxCell>
        <mxCell id="cmYx8P6SDvhnQ8QoC2EQ-82" value="1" style="pointerEvents=1;verticalLabelPosition=bottom;shadow=0;dashed=0;align=center;html=1;verticalAlign=top;shape=mxgraph.electrical.waveforms.square_wave;labelBackgroundColor=default;strokeColor=#000000;strokeWidth=2;fontSize=16;fontColor=#000000;" vertex="1" parent="1">
          <mxGeometry x="206" y="599.86" width="79" height="80" as="geometry" />
        </mxCell>
        <mxCell id="cmYx8P6SDvhnQ8QoC2EQ-83" value="2" style="pointerEvents=1;verticalLabelPosition=bottom;shadow=0;dashed=0;align=center;html=1;verticalAlign=top;shape=mxgraph.electrical.waveforms.square_wave;labelBackgroundColor=default;strokeColor=#000000;strokeWidth=2;fontSize=16;fontColor=#000000;" vertex="1" parent="1">
          <mxGeometry x="285" y="600" width="79" height="80" as="geometry" />
        </mxCell>
        <mxCell id="cmYx8P6SDvhnQ8QoC2EQ-84" value="3" style="pointerEvents=1;verticalLabelPosition=bottom;shadow=0;dashed=0;align=center;html=1;verticalAlign=top;shape=mxgraph.electrical.waveforms.square_wave;labelBackgroundColor=default;strokeColor=#000000;strokeWidth=2;fontSize=16;fontColor=#000000;" vertex="1" parent="1">
          <mxGeometry x="364" y="600" width="79" height="80" as="geometry" />
        </mxCell>
        <mxCell id="cmYx8P6SDvhnQ8QoC2EQ-85" value="4" style="pointerEvents=1;verticalLabelPosition=bottom;shadow=0;dashed=0;align=center;html=1;verticalAlign=top;shape=mxgraph.electrical.waveforms.square_wave;labelBackgroundColor=default;strokeColor=#000000;strokeWidth=2;fontSize=16;fontColor=#000000;" vertex="1" parent="1">
          <mxGeometry x="443" y="599.86" width="79" height="80" as="geometry" />
        </mxCell>
        <mxCell id="cmYx8P6SDvhnQ8QoC2EQ-86" value="5" style="pointerEvents=1;verticalLabelPosition=bottom;shadow=0;dashed=0;align=center;html=1;verticalAlign=top;shape=mxgraph.electrical.waveforms.square_wave;labelBackgroundColor=default;strokeColor=#000000;strokeWidth=2;fontSize=16;fontColor=#000000;" vertex="1" parent="1">
          <mxGeometry x="522" y="600" width="79" height="80" as="geometry" />
        </mxCell>
        <mxCell id="cmYx8P6SDvhnQ8QoC2EQ-87" value="6" style="pointerEvents=1;verticalLabelPosition=bottom;shadow=0;dashed=0;align=center;html=1;verticalAlign=top;shape=mxgraph.electrical.waveforms.square_wave;labelBackgroundColor=default;strokeColor=#000000;strokeWidth=2;fontSize=16;fontColor=#000000;" vertex="1" parent="1">
          <mxGeometry x="601" y="599.86" width="79" height="80" as="geometry" />
        </mxCell>
        <mxCell id="cmYx8P6SDvhnQ8QoC2EQ-88" value="" style="endArrow=none;html=1;rounded=0;strokeWidth=2;" edge="1" parent="1">
          <mxGeometry width="50" height="50" relative="1" as="geometry">
            <mxPoint x="210" y="800" as="sourcePoint" />
            <mxPoint x="186" y="720" as="targetPoint" />
            <Array as="points">
              <mxPoint x="186" y="800" />
            </Array>
          </mxGeometry>
        </mxCell>
        <mxCell id="cmYx8P6SDvhnQ8QoC2EQ-89" value="" style="endArrow=none;html=1;rounded=0;strokeWidth=2;fontSize=15;" edge="1" parent="1">
          <mxGeometry width="50" height="50" relative="1" as="geometry">
            <mxPoint x="160" y="720" as="sourcePoint" />
            <mxPoint x="185" y="720" as="targetPoint" />
          </mxGeometry>
        </mxCell>
        <mxCell id="cmYx8P6SDvhnQ8QoC2EQ-90" value="f).在主时钟双边沿采样e" style="text;html=1;strokeColor=none;fillColor=none;align=center;verticalAlign=middle;whiteSpace=wrap;rounded=0;fontSize=15;" vertex="1" parent="1">
          <mxGeometry x="40" y="750" width="80" height="30" as="geometry" />
        </mxCell>
        <mxCell id="cmYx8P6SDvhnQ8QoC2EQ-91" value="" style="endArrow=none;html=1;rounded=0;strokeWidth=2;" edge="1" parent="1">
          <mxGeometry width="50" height="50" relative="1" as="geometry">
            <mxPoint x="210.5300000000002" y="800" as="sourcePoint" />
            <mxPoint x="259" y="720" as="targetPoint" />
            <Array as="points">
              <mxPoint x="210" y="720" />
            </Array>
          </mxGeometry>
        </mxCell>
        <mxCell id="cmYx8P6SDvhnQ8QoC2EQ-92" value="" style="endArrow=none;html=1;rounded=0;strokeWidth=2;" edge="1" parent="1">
          <mxGeometry width="50" height="50" relative="1" as="geometry">
            <mxPoint x="284" y="800" as="sourcePoint" />
            <mxPoint x="260" y="720" as="targetPoint" />
            <Array as="points">
              <mxPoint x="260" y="800" />
            </Array>
          </mxGeometry>
        </mxCell>
        <mxCell id="cmYx8P6SDvhnQ8QoC2EQ-93" value="0" style="text;html=1;strokeColor=none;fillColor=none;align=center;verticalAlign=middle;whiteSpace=wrap;rounded=0;fontSize=16;strokeWidth=2;" vertex="1" parent="1">
          <mxGeometry x="156.5" y="800" width="20" height="30" as="geometry" />
        </mxCell>
        <mxCell id="cmYx8P6SDvhnQ8QoC2EQ-94" value="1" style="text;html=1;strokeColor=none;fillColor=none;align=center;verticalAlign=middle;whiteSpace=wrap;rounded=0;fontSize=16;strokeWidth=2;" vertex="1" parent="1">
          <mxGeometry x="235.5" y="800" width="20" height="30" as="geometry" />
        </mxCell>
        <mxCell id="cmYx8P6SDvhnQ8QoC2EQ-95" value="" style="endArrow=none;html=1;rounded=0;strokeWidth=2;" edge="1" parent="1">
          <mxGeometry width="50" height="50" relative="1" as="geometry">
            <mxPoint x="285.0300000000002" y="800" as="sourcePoint" />
            <mxPoint x="333.49999999999955" y="720" as="targetPoint" />
            <Array as="points">
              <mxPoint x="284.5" y="720" />
            </Array>
          </mxGeometry>
        </mxCell>
        <mxCell id="cmYx8P6SDvhnQ8QoC2EQ-96" value="" style="endArrow=none;html=1;rounded=0;strokeWidth=2;" edge="1" parent="1">
          <mxGeometry width="50" height="50" relative="1" as="geometry">
            <mxPoint x="385" y="800" as="sourcePoint" />
            <mxPoint x="335" y="720" as="targetPoint" />
            <Array as="points">
              <mxPoint x="335" y="800" />
            </Array>
          </mxGeometry>
        </mxCell>
        <mxCell id="cmYx8P6SDvhnQ8QoC2EQ-97" value="" style="endArrow=none;html=1;rounded=0;strokeWidth=2;" edge="1" parent="1">
          <mxGeometry width="50" height="50" relative="1" as="geometry">
            <mxPoint x="385.5300000000002" y="800" as="sourcePoint" />
            <mxPoint x="410" y="720" as="targetPoint" />
            <Array as="points">
              <mxPoint x="385" y="720" />
            </Array>
          </mxGeometry>
        </mxCell>
        <mxCell id="cmYx8P6SDvhnQ8QoC2EQ-98" value="" style="endArrow=none;html=1;rounded=0;strokeWidth=2;" edge="1" parent="1">
          <mxGeometry width="50" height="50" relative="1" as="geometry">
            <mxPoint x="460" y="800" as="sourcePoint" />
            <mxPoint x="410" y="720" as="targetPoint" />
            <Array as="points">
              <mxPoint x="410" y="800" />
            </Array>
          </mxGeometry>
        </mxCell>
        <mxCell id="cmYx8P6SDvhnQ8QoC2EQ-99" value="" style="endArrow=none;html=1;rounded=0;strokeWidth=2;" edge="1" parent="1">
          <mxGeometry width="50" height="50" relative="1" as="geometry">
            <mxPoint x="460.5300000000002" y="800" as="sourcePoint" />
            <mxPoint x="485" y="720" as="targetPoint" />
            <Array as="points">
              <mxPoint x="460" y="720" />
            </Array>
          </mxGeometry>
        </mxCell>
        <mxCell id="cmYx8P6SDvhnQ8QoC2EQ-100" value="" style="endArrow=none;html=1;rounded=0;strokeWidth=2;" edge="1" parent="1">
          <mxGeometry width="50" height="50" relative="1" as="geometry">
            <mxPoint x="535" y="800" as="sourcePoint" />
            <mxPoint x="485" y="720" as="targetPoint" />
            <Array as="points">
              <mxPoint x="485" y="800" />
            </Array>
          </mxGeometry>
        </mxCell>
        <mxCell id="cmYx8P6SDvhnQ8QoC2EQ-101" value="" style="endArrow=none;html=1;rounded=0;strokeWidth=2;" edge="1" parent="1">
          <mxGeometry width="50" height="50" relative="1" as="geometry">
            <mxPoint x="535.5300000000002" y="800" as="sourcePoint" />
            <mxPoint x="585" y="720" as="targetPoint" />
            <Array as="points">
              <mxPoint x="535" y="720" />
            </Array>
          </mxGeometry>
        </mxCell>
        <mxCell id="cmYx8P6SDvhnQ8QoC2EQ-102" value="" style="endArrow=none;html=1;rounded=0;strokeWidth=2;" edge="1" parent="1">
          <mxGeometry width="50" height="50" relative="1" as="geometry">
            <mxPoint x="610" y="800" as="sourcePoint" />
            <mxPoint x="585" y="720" as="targetPoint" />
            <Array as="points">
              <mxPoint x="585" y="800" />
            </Array>
          </mxGeometry>
        </mxCell>
        <mxCell id="cmYx8P6SDvhnQ8QoC2EQ-103" value="" style="endArrow=none;html=1;rounded=0;strokeWidth=2;" edge="1" parent="1">
          <mxGeometry width="50" height="50" relative="1" as="geometry">
            <mxPoint x="610.5300000000002" y="800" as="sourcePoint" />
            <mxPoint x="660" y="720" as="targetPoint" />
            <Array as="points">
              <mxPoint x="610" y="720" />
            </Array>
          </mxGeometry>
        </mxCell>
        <mxCell id="cmYx8P6SDvhnQ8QoC2EQ-104" value="" style="endArrow=none;html=1;rounded=0;strokeWidth=2;" edge="1" parent="1">
          <mxGeometry width="50" height="50" relative="1" as="geometry">
            <mxPoint x="685" y="800" as="sourcePoint" />
            <mxPoint x="660" y="720" as="targetPoint" />
            <Array as="points">
              <mxPoint x="660" y="800" />
            </Array>
          </mxGeometry>
        </mxCell>
        <mxCell id="cmYx8P6SDvhnQ8QoC2EQ-105" value="2" style="text;html=1;strokeColor=none;fillColor=none;align=center;verticalAlign=middle;whiteSpace=wrap;rounded=0;fontSize=16;strokeWidth=2;" vertex="1" parent="1">
          <mxGeometry x="324.5" y="800" width="20" height="30" as="geometry" />
        </mxCell>
        <mxCell id="cmYx8P6SDvhnQ8QoC2EQ-106" value="3" style="text;html=1;strokeColor=none;fillColor=none;align=center;verticalAlign=middle;whiteSpace=wrap;rounded=0;fontSize=16;strokeWidth=2;" vertex="1" parent="1">
          <mxGeometry x="412" y="800" width="20" height="30" as="geometry" />
        </mxCell>
        <mxCell id="cmYx8P6SDvhnQ8QoC2EQ-107" value="4" style="text;html=1;strokeColor=none;fillColor=none;align=center;verticalAlign=middle;whiteSpace=wrap;rounded=0;fontSize=16;strokeWidth=2;" vertex="1" parent="1">
          <mxGeometry x="487" y="800" width="20" height="30" as="geometry" />
        </mxCell>
        <mxCell id="cmYx8P6SDvhnQ8QoC2EQ-108" value="5" style="text;html=1;strokeColor=none;fillColor=none;align=center;verticalAlign=middle;whiteSpace=wrap;rounded=0;fontSize=16;strokeWidth=2;" vertex="1" parent="1">
          <mxGeometry x="562" y="800" width="20" height="30" as="geometry" />
        </mxCell>
        <mxCell id="cmYx8P6SDvhnQ8QoC2EQ-109" value="6" style="text;html=1;strokeColor=none;fillColor=none;align=center;verticalAlign=middle;whiteSpace=wrap;rounded=0;fontSize=16;strokeWidth=2;" vertex="1" parent="1">
          <mxGeometry x="638" y="800" width="20" height="30" as="geometry" />
        </mxCell>
        <mxCell id="cmYx8P6SDvhnQ8QoC2EQ-110" value="频率超过主时钟频率一半的时钟" style="text;whiteSpace=wrap;html=1;fontSize=16;align=center;fontStyle=1" vertex="1" parent="1">
          <mxGeometry x="285" y="40" width="260" height="40" as="geometry" />
        </mxCell>
      </root>
    </mxGraphModel>
  </diagram>
</mxfile>
